<?xml version="1.0" encoding="UTF-8"?>
<svg width="79px" height="62px" viewBox="0 0 79 62" version="1.1" xmlns="http://www.w3.org/2000/svg" xmlns:xlink="http://www.w3.org/1999/xlink">
    <!-- Generator: Sketch 47.1 (45422) - http://www.bohemiancoding.com/sketch -->
    <title>Rectangle</title>
    <desc>Created with Sketch.</desc>
    <defs>
        <filter x="-24.8%" y="-17.7%" width="152.3%" height="152.3%" filterUnits="objectBoundingBox" id="filter-1">
            <feOffset dx="0" dy="2" in="SourceAlpha" result="shadowOffsetOuter1"></feOffset>
            <feGaussianBlur stdDeviation="2" in="shadowOffsetOuter1" result="shadowBlurOuter1"></feGaussianBlur>
            <feColorMatrix values="0 0 0 0 0   0 0 0 0 0   0 0 0 0 0  0 0 0 0.5 0" type="matrix" in="shadowBlurOuter1" result="shadowMatrixOuter1"></feColorMatrix>
            <feMerge>
                <feMergeNode in="shadowMatrixOuter1"></feMergeNode>
                <feMergeNode in="SourceGraphic"></feMergeNode>
            </feMerge>
        </filter>
    </defs>
    <g id="Page-1" stroke="none" stroke-width="1" fill="none" fill-rule="evenodd">
        <rect id="Rectangle" fill="#F9E104" x="0" y="0" width="79" height="61.3134328" rx="30.6567164"></rect>
        <g id="ic_visibility_off_white_48px" filter="url(#filter-1)" transform="translate(25.000000, 17.000000)">
            <path d="M0,0 L28.2299995,0 L28.2299995,28.2299995 L0,28.2299995 L0,0 Z M0,0 L28.2299995,0 L28.2299995,28.2299995 L0,28.2299995 L0,0 Z M0,0 L28.2299995,0 L28.2299995,28.2299995 L0,28.2299995 L0,0 Z M0,0 L28.2299995,0 L28.2299995,28.2299995 L0,28.2299995 L0,0 Z" id="Shape"></path>
            <path d="M14.1149998,8.23374987 C17.3614497,8.23374987 19.9962497,10.8685498 19.9962497,14.1149998 C19.9962497,14.8795623 19.8433372,15.5970747 19.5727997,16.2675372 L23.0074496,19.7021872 C24.7835871,18.2201122 26.1833246,16.3028247 27.0419871,14.1149998 C25.0070746,8.95126235 19.9844872,5.29312491 14.1032373,5.29312491 C12.4564873,5.29312491 10.8803123,5.58718741 9.42176235,6.1164999 L11.9624623,8.65719986 C12.6329248,8.38666236 13.3504373,8.23374987 14.1149998,8.23374987 Z M2.35249996,5.02258742 L5.03434992,7.70443738 L5.57542491,8.24551237 C3.62284994,9.76287484 2.09372497,11.7860248 1.17624998,14.1149998 C3.21116245,19.2787372 8.23374987,22.9368746 14.1149998,22.9368746 C15.9381872,22.9368746 17.6790372,22.5839996 19.2669747,21.9488246 L19.7609997,22.4428496 L23.2074121,25.8774996 L24.7012496,24.3836621 L3.84633744,3.52874994 L2.35249996,5.02258742 Z M8.85716236,11.5272498 L10.6803498,13.3504373 C10.6215373,13.5974498 10.5862498,13.8562248 10.5862498,14.1149998 C10.5862498,16.0675747 12.1624248,17.6437497 14.1149998,17.6437497 C14.3737748,17.6437497 14.6325498,17.6084622 14.8795623,17.5496497 L16.7027497,19.3728372 C15.9146622,19.7609997 15.0442373,19.9962497 14.1149998,19.9962497 C10.8685498,19.9962497 8.23374987,17.3614497 8.23374987,14.1149998 C8.23374987,13.1857623 8.46899986,12.3153373 8.85716236,11.5272498 L8.85716236,11.5272498 Z M13.9267998,10.6097748 L17.6319872,14.3149623 L17.6555122,14.1267623 C17.6555122,12.1741873 16.0793372,10.5980123 14.1267623,10.5980123 L13.9267998,10.6097748 Z" id="Shape" fill="#FFFFFF" fill-rule="nonzero"></path>
        </g>
    </g>
</svg>